# xmcd CD database file
#
# Track frame offsets:
#	150
#	14991
#	31425
#	45597
#	62670
#	79477
#	94887
#	106118
#	124596
#	140236
#	154804
#
# Disc length: 2236 seconds
#
# Revision: 0
# Processed by: cddbd v1.5.2PL0 Copyright (c) Steve Scherf et al.
# Submitted via: CDex 1.51
#
DISCID=9908ba0b
DTITLE=Rodrigo Rios - Rodrigo Rios
DYEAR=2010
DGENRE=Country
TTITLE0=Giuliana
TTITLE1=Sem Vergonha e Sem Juizo
TTITLE2=Deixa o Tempo Passar
TTITLE3=O Tempo
TTITLE4=Quero Falar de Amor
TTITLE5=Diz
TTITLE6=Por Onde For
TTITLE7=Jardim de Estrelas
TTITLE8=Será
TTITLE9=Casinha Branca
TTITLE10=Pra Sempre Vou Te Amar
EXTD=YEAR: 2010
EXTT0=
EXTT1=
EXTT2=
EXTT3=
EXTT4=
EXTT5=
EXTT6=
EXTT7=
EXTT8=
EXTT9=
EXTT10=
PLAYORDER=
